<svg width="24" height="23" viewBox="0 0 24 23" fill="none" xmlns="http://www.w3.org/2000/svg">
<path d="M9.07394 17C9.10297 16.9942 9.13114 16.985 9.1578 16.9728C9.18551 16.9599 9.21347 16.9455 9.24167 16.9296L15.8018 13.4453C16.1929 13.2368 16.4904 12.9985 16.6941 12.7306C16.8983 12.462 17.0002 12.044 17 11.4767V5.3907C17 5.15111 16.9776 4.95312 16.9329 4.79672L9.07394 8.9845V17ZM7.92606 17V8.9845L0.0670928 4.79672C0.0223643 4.95312 0 5.15111 0 5.3907V11.4767C0 12.0445 0.103313 12.4625 0.309939 12.7306C0.516566 12.9988 0.812649 13.237 1.19819 13.4453L7.76672 16.9296C7.79443 16.9453 7.82093 16.9597 7.84621 16.9728C7.87115 16.9854 7.89829 16.9946 7.92606 17ZM8.50401 8.04678L12.0814 6.15638L4.14699 1.92984L1.07203 3.56252C0.882416 3.66157 0.725988 3.76312 0.602741 3.86716L8.50401 8.04678ZM13.2461 5.53894L16.3965 3.86716C16.2549 3.75066 16.1004 3.64853 15.9356 3.56252L10.0209 0.42194C9.50141 0.140647 8.99578 0 8.50401 0C8.00689 0 7.49871 0.140533 6.97947 0.4216L5.27845 1.32022L13.2461 5.53894Z" fill="white"/>
<path fill-rule="evenodd" clip-rule="evenodd" d="M17.4286 22.5326L17.4191 22.534L17.3629 22.5601L17.347 22.5631L17.336 22.5601L17.2797 22.5333C17.2713 22.5313 17.265 22.5328 17.2607 22.5378L17.2576 22.5452L17.2441 22.8639L17.2481 22.8788L17.256 22.8885L17.3383 22.9436L17.3502 22.9466L17.3597 22.9436L17.442 22.8885L17.4515 22.8766L17.4547 22.8639L17.4412 22.546C17.4391 22.538 17.4349 22.5335 17.4286 22.5326ZM17.6376 22.4484L17.6265 22.4499L17.4808 22.5192L17.4729 22.5266L17.4705 22.5348L17.4848 22.855L17.4887 22.8639L17.4951 22.8699L17.6542 22.9384C17.6642 22.9409 17.6719 22.9389 17.6772 22.9324L17.6803 22.922L17.6534 22.4648C17.6508 22.4554 17.6455 22.4499 17.6376 22.4484ZM17.0715 22.4499C17.068 22.4479 17.0639 22.4473 17.0599 22.4481C17.0559 22.4489 17.0524 22.4512 17.0502 22.4544L17.0454 22.4648L17.0185 22.922C17.019 22.931 17.0235 22.9369 17.032 22.9399L17.0438 22.9384L17.203 22.8691L17.2109 22.8632L17.2132 22.855L17.2275 22.5348L17.2251 22.5259L17.2172 22.5184L17.0715 22.4499Z" fill="#4D4DF4"/>
<path fill-rule="evenodd" clip-rule="evenodd" d="M10.625 8.19149C10.625 7.79648 10.7918 7.41766 11.0887 7.13835C11.3857 6.85904 11.7884 6.70213 12.2083 6.70213H21.7083C22.1283 6.70213 22.531 6.85904 22.8279 7.13835C23.1249 7.41766 23.2917 7.79648 23.2917 8.19149V20.1064C23.2917 20.5014 23.1249 20.8802 22.8279 21.1595C22.531 21.4388 22.1283 21.5957 21.7083 21.5957H12.2083C11.7884 21.5957 11.3857 21.4388 11.0887 21.1595C10.7918 20.8802 10.625 20.5014 10.625 20.1064V8.19149ZM21.7083 8.19149H12.2083V20.1064H21.7083V8.19149ZM16.6005 10.249C16.7489 10.3887 16.8323 10.5781 16.8323 10.7755C16.8323 10.973 16.7489 11.1624 16.6005 11.302L15.0607 12.7489C14.8752 12.9233 14.6236 13.0213 14.3613 13.0213C14.099 13.0213 13.8474 12.9233 13.6618 12.7489L12.962 12.0906C12.8864 12.0219 12.8261 11.9398 12.7846 11.8489C12.7431 11.7581 12.7213 11.6603 12.7203 11.5615C12.7194 11.4626 12.7395 11.3645 12.7793 11.273C12.8191 11.1815 12.8779 11.0983 12.9522 11.0284C13.0265 10.9585 13.1149 10.9032 13.2122 10.8658C13.3095 10.8283 13.4137 10.8095 13.5189 10.8103C13.624 10.8112 13.7279 10.8317 13.8244 10.8708C13.921 10.9098 14.0084 10.9665 14.0814 11.0377L14.3617 11.3013L15.4811 10.2483C15.6295 10.1087 15.8309 10.0303 16.0408 10.0303C16.2507 10.0303 16.452 10.1094 16.6005 10.249ZM17.75 11.9149C17.75 11.7174 17.8334 11.528 17.9819 11.3883C18.1303 11.2487 18.3317 11.1702 18.5417 11.1702H20.125C20.335 11.1702 20.5363 11.2487 20.6848 11.3883C20.8333 11.528 20.9167 11.7174 20.9167 11.9149C20.9167 12.1124 20.8333 12.3018 20.6848 12.4415C20.5363 12.5811 20.335 12.6596 20.125 12.6596H18.5417C18.3317 12.6596 18.1303 12.5811 17.9819 12.4415C17.8334 12.3018 17.75 12.1124 17.75 11.9149ZM13 15.266C13 14.9697 13.1251 14.6856 13.3478 14.4761C13.5705 14.2666 13.8726 14.1489 14.1875 14.1489H15.7708C16.0858 14.1489 16.3878 14.2666 16.6105 14.4761C16.8332 14.6856 16.9583 14.9697 16.9583 15.266V16.7553C16.9583 17.0516 16.8332 17.3357 16.6105 17.5452C16.3878 17.7547 16.0858 17.8723 15.7708 17.8723H14.1875C13.8726 17.8723 13.5705 17.7547 13.3478 17.5452C13.1251 17.3357 13 17.0516 13 16.7553V15.266ZM14.5833 15.6383V16.383H15.375V15.6383H14.5833ZM17.75 16.0106C17.75 15.8131 17.8334 15.6237 17.9819 15.4841C18.1303 15.3444 18.3317 15.266 18.5417 15.266H20.125C20.335 15.266 20.5363 15.3444 20.6848 15.4841C20.8333 15.6237 20.9167 15.8131 20.9167 16.0106C20.9167 16.2081 20.8333 16.3975 20.6848 16.5372C20.5363 16.6769 20.335 16.7553 20.125 16.7553H18.5417C18.3317 16.7553 18.1303 16.6769 17.9819 16.5372C17.8334 16.3975 17.75 16.2081 17.75 16.0106Z" fill="#4D4DF4"/>
</svg>
